G04 MADE WITH FRITZING*
G04 WWW.FRITZING.ORG*
G04 DOUBLE SIDED*
G04 HOLES PLATED*
G04 CONTOUR ON CENTER OF CONTOUR VECTOR*
%ASAXBY*%
%FSLAX23Y23*%
%MOIN*%
%OFA0B0*%
%SFA1.0B1.0*%
%ADD10C,0.080000*%
%ADD11C,0.070555*%
%ADD12C,0.070583*%
%ADD13C,0.078000*%
%ADD14C,0.070000*%
%ADD15R,0.080000X0.080000*%
%ADD16R,0.070542X0.070570*%
%ADD17C,0.048000*%
%ADD18C,0.024000*%
%LNCOPPER1*%
G90*
G70*
G54D10*
X2886Y164D03*
X2748Y164D03*
X2611Y164D03*
X2473Y164D03*
G54D11*
X536Y1014D03*
X636Y1014D03*
X736Y1014D03*
X836Y1014D03*
X936Y1014D03*
X1036Y1014D03*
X1136Y1014D03*
X1236Y1014D03*
X1336Y1014D03*
G54D12*
X1436Y1014D03*
X1536Y1014D03*
X1636Y1014D03*
G54D11*
X1736Y1014D03*
X1836Y1014D03*
G54D12*
X1936Y1014D03*
X2036Y1014D03*
X2136Y1014D03*
G54D11*
X536Y1614D03*
X636Y1614D03*
X736Y1614D03*
X836Y1614D03*
X936Y1614D03*
X1036Y1614D03*
X1336Y1614D03*
G54D12*
X1436Y1614D03*
G54D11*
X1236Y1614D03*
X1136Y1614D03*
G54D12*
X1536Y1614D03*
X1636Y1614D03*
G54D11*
X1736Y1614D03*
X1836Y1614D03*
G54D12*
X1936Y1614D03*
X2036Y1614D03*
X2136Y1614D03*
G54D13*
X2036Y164D03*
X1936Y164D03*
X1836Y164D03*
X1736Y164D03*
X1636Y164D03*
X1536Y164D03*
X1436Y164D03*
X1336Y164D03*
X1536Y2014D03*
X1636Y2014D03*
X1736Y2014D03*
X1836Y2014D03*
X1936Y2014D03*
G54D14*
X886Y1764D03*
X986Y1764D03*
G54D13*
X636Y814D03*
X636Y714D03*
X636Y614D03*
X636Y514D03*
X2236Y814D03*
X2236Y714D03*
X2236Y614D03*
X2236Y514D03*
X2886Y1964D03*
X2786Y1964D03*
X2686Y1964D03*
X2886Y1714D03*
X2786Y1714D03*
X2686Y1714D03*
X2886Y1464D03*
X2786Y1464D03*
X2686Y1464D03*
G54D15*
X2886Y164D03*
G54D16*
X536Y1014D03*
G54D17*
X2886Y206D02*
X2884Y1115D01*
D02*
X2884Y1115D02*
X1036Y1115D01*
D02*
X1036Y1115D02*
X1036Y1044D01*
G54D18*
D02*
X2786Y1365D02*
X2786Y1434D01*
D02*
X1637Y1365D02*
X2786Y1365D01*
D02*
X1636Y1584D02*
X1637Y1365D01*
D02*
X2786Y1613D02*
X2485Y1613D01*
D02*
X2485Y1613D02*
X2485Y1514D01*
D02*
X2786Y1684D02*
X2786Y1613D01*
D02*
X2485Y1514D02*
X1736Y1514D01*
D02*
X1736Y1514D02*
X1736Y1584D01*
D02*
X2786Y1813D02*
X2786Y1934D01*
D02*
X1837Y1813D02*
X2786Y1813D01*
D02*
X1836Y1644D02*
X1837Y1813D01*
D02*
X666Y514D02*
X736Y514D01*
D02*
X736Y514D02*
X736Y984D01*
D02*
X2736Y814D02*
X2266Y814D01*
D02*
X2748Y195D02*
X2736Y814D01*
D02*
X2436Y714D02*
X2471Y195D01*
D02*
X2266Y714D02*
X2436Y714D01*
G04 End of Copper1*
M02*