; NON-PLATED HOLES START AT T1
; THROUGH (PLATED) HOLES START AT T100
M48
INCH
T1C0.125984
T100C0.037222
T101C0.038000
T102C0.040000
T103C0.037250
T104C0.035000
T105C0.030000
%
T1
X002061Y001647
X002061Y019647
X033061Y001647
X033061Y019647
T100
X008061Y014647
X011061Y014647
X013061Y008647
X009061Y008647
X012061Y008647
X019061Y014647
X007061Y008647
X010061Y008647
X006061Y008647
X018061Y008647
X013061Y014647
X009061Y014647
X012061Y014647
X007061Y014647
X010061Y014647
X006061Y014647
X014061Y008647
X008061Y008647
X011061Y008647
X018061Y014647
X019061Y008647
X014061Y014647
T101
X019061Y002647
X028061Y018647
X022061Y002647
X017061Y002647
X028061Y015647
X020061Y002647
X016061Y002647
X028061Y012647
X018061Y018647
X029061Y018647
X018061Y002647
X027061Y018647
X029061Y015647
X021061Y002647
X029061Y012647
X027061Y015647
X015061Y002647
X027061Y012647
X019061Y018647
X017061Y018647
X020061Y018647
X016061Y018647
T102
X026305Y002647
X024927Y002647
X029061Y002647
X027683Y002647
T103
X017061Y008647
X015061Y014647
X016061Y014647
X020061Y008647
X021061Y008647
X022061Y008647
X017061Y014647
X020061Y014647
X021061Y014647
X022061Y014647
X015061Y008647
X016061Y008647
T104
X013061Y006647
X012061Y006647
X013061Y002647
X012061Y002647
T105
X011063Y016647
X010061Y016647
T00
M30
