; NON-PLATED HOLES START AT T1
; THROUGH (PLATED) HOLES START AT T100
M48
INCH
T1C0.125984
T100C0.030000
T101C0.037222
T102C0.038000
T103C0.040000
T104C0.037250
%
T1
X031361Y002138
X002361Y020138
X002361Y002138
X031361Y020138
T100
X009862Y017638
X008861Y017638
T101
X010361Y016138
X006361Y016138
X013361Y010138
X009361Y010138
X012361Y010138
X007361Y010138
X010361Y010138
X006361Y010138
X018361Y016138
X017361Y016138
X018361Y010138
X017361Y010138
X008361Y016138
X011361Y016138
X005361Y016138
X008361Y010138
X011361Y010138
X005361Y010138
X013361Y016138
X009361Y016138
X012361Y016138
X007361Y016138
T102
X026861Y014638
X022361Y008138
X006361Y006138
X022361Y005138
X027861Y017138
X027861Y019638
X026861Y017138
X026861Y019638
X018361Y020138
X019361Y001638
X017361Y020138
X015361Y020138
X020361Y001638
X016361Y001638
X006361Y008138
X028861Y014638
X022361Y007138
X006361Y005138
X013361Y001638
X028861Y017138
X028861Y019638
X019361Y020138
X006361Y007138
X022361Y006138
X018361Y001638
X016361Y020138
X017361Y001638
X015361Y001638
X027861Y014638
X014361Y001638
T103
X027483Y001638
X028861Y001638
X024727Y001638
X026105Y001638
T104
X015361Y016138
X015361Y010138
X016361Y016138
X016361Y010138
X019361Y016138
X019361Y010138
X020361Y016138
X020361Y010138
X021361Y016138
X021361Y010138
X014361Y016138
X014361Y010138
T00
M30
