G04 MADE WITH FRITZING*
G04 WWW.FRITZING.ORG*
G04 DOUBLE SIDED*
G04 HOLES PLATED*
G04 CONTOUR ON CENTER OF CONTOUR VECTOR*
%ASAXBY*%
%FSLAX23Y23*%
%MOIN*%
%OFA0B0*%
%SFA1.0B1.0*%
%ADD10C,0.080000*%
%ADD11C,0.070555*%
%ADD12C,0.070583*%
%ADD13C,0.078000*%
%ADD14C,0.070000*%
%ADD15R,0.080000X0.080000*%
%ADD16R,0.070542X0.070570*%
%ADD17C,0.048000*%
%ADD18C,0.024000*%
%LNCOPPER0*%
G90*
G70*
G54D10*
X2886Y164D03*
X2748Y164D03*
X2611Y164D03*
X2473Y164D03*
G54D11*
X536Y1014D03*
X636Y1014D03*
X736Y1014D03*
X836Y1014D03*
X936Y1014D03*
X1036Y1014D03*
X1136Y1014D03*
X1236Y1014D03*
X1336Y1014D03*
G54D12*
X1436Y1014D03*
X1536Y1014D03*
X1636Y1014D03*
G54D11*
X1736Y1014D03*
X1836Y1014D03*
G54D12*
X1936Y1014D03*
X2036Y1014D03*
X2136Y1014D03*
G54D11*
X536Y1614D03*
X636Y1614D03*
X736Y1614D03*
X836Y1614D03*
X936Y1614D03*
X1036Y1614D03*
X1336Y1614D03*
G54D12*
X1436Y1614D03*
G54D11*
X1236Y1614D03*
X1136Y1614D03*
G54D12*
X1536Y1614D03*
X1636Y1614D03*
G54D11*
X1736Y1614D03*
X1836Y1614D03*
G54D12*
X1936Y1614D03*
X2036Y1614D03*
X2136Y1614D03*
G54D13*
X2036Y164D03*
X1936Y164D03*
X1836Y164D03*
X1736Y164D03*
X1636Y164D03*
X1536Y164D03*
X1436Y164D03*
X1336Y164D03*
X1536Y2014D03*
X1636Y2014D03*
X1736Y2014D03*
X1836Y2014D03*
X1936Y2014D03*
G54D14*
X886Y1764D03*
X986Y1764D03*
G54D13*
X636Y814D03*
X636Y714D03*
X636Y614D03*
X636Y514D03*
X2236Y814D03*
X2236Y714D03*
X2236Y614D03*
X2236Y514D03*
X2886Y1964D03*
X2786Y1964D03*
X2686Y1964D03*
X2886Y1714D03*
X2786Y1714D03*
X2686Y1714D03*
X2886Y1464D03*
X2786Y1464D03*
X2686Y1464D03*
G54D15*
X2886Y164D03*
G54D16*
X536Y1014D03*
G54D17*
X838Y1764D02*
X860Y1764D01*
D02*
X837Y1644D02*
X838Y1764D01*
G54D18*
D02*
X1036Y1764D02*
X1012Y1764D01*
D02*
X1036Y1644D02*
X1036Y1764D01*
G54D17*
D02*
X888Y2011D02*
X1506Y2014D01*
D02*
X886Y1790D02*
X888Y2011D01*
G54D18*
D02*
X1636Y1912D02*
X1636Y1984D01*
D02*
X987Y1912D02*
X1636Y1912D01*
D02*
X986Y1790D02*
X987Y1912D01*
D02*
X1706Y2014D02*
X1666Y2014D01*
D02*
X2036Y984D02*
X2036Y194D01*
D02*
X1936Y984D02*
X1936Y194D01*
D02*
X1836Y984D02*
X1836Y194D01*
D02*
X1736Y984D02*
X1736Y194D01*
D02*
X1636Y984D02*
X1636Y194D01*
D02*
X1536Y984D02*
X1536Y194D01*
D02*
X1436Y984D02*
X1436Y194D01*
D02*
X1336Y984D02*
X1336Y194D01*
D02*
X2334Y1016D02*
X2166Y1014D01*
D02*
X2334Y2011D02*
X2334Y1016D01*
D02*
X1966Y2014D02*
X2334Y2011D01*
D02*
X2136Y1912D02*
X2136Y1644D01*
D02*
X1834Y1912D02*
X2136Y1912D01*
D02*
X1835Y1984D02*
X1834Y1912D01*
G54D17*
D02*
X2886Y1744D02*
X2886Y1934D01*
D02*
X2886Y1494D02*
X2886Y1684D01*
D02*
X2886Y195D02*
X2886Y1434D01*
G54D18*
D02*
X2687Y363D02*
X2739Y194D01*
D02*
X2686Y1434D02*
X2687Y363D01*
D02*
X2686Y1494D02*
X2686Y1684D01*
D02*
X2686Y1744D02*
X2686Y1934D01*
D02*
X1736Y2114D02*
X2687Y2114D01*
D02*
X2687Y2114D02*
X2686Y1994D01*
D02*
X1736Y2044D02*
X1736Y2114D01*
D02*
X836Y814D02*
X666Y814D01*
D02*
X836Y984D02*
X836Y814D01*
D02*
X636Y684D02*
X636Y644D01*
D02*
X1136Y714D02*
X666Y714D01*
D02*
X1136Y984D02*
X1136Y714D01*
D02*
X2585Y614D02*
X2266Y614D01*
D02*
X2609Y195D02*
X2585Y614D01*
G54D17*
D02*
X2236Y63D02*
X2236Y484D01*
D02*
X2886Y133D02*
X2887Y63D01*
D02*
X2887Y63D02*
X2236Y63D01*
G04 End of Copper0*
M02*