G04 MADE WITH FRITZING*
G04 WWW.FRITZING.ORG*
G04 DOUBLE SIDED*
G04 HOLES PLATED*
G04 CONTOUR ON CENTER OF CONTOUR VECTOR*
%ASAXBY*%
%FSLAX23Y23*%
%MOIN*%
%OFA0B0*%
%SFA1.0B1.0*%
%ADD10C,0.078000*%
%ADD11C,0.070555*%
%ADD12C,0.070583*%
%ADD13C,0.075000*%
%ADD14C,0.080000*%
%ADD15C,0.070000*%
%ADD16R,0.070542X0.070570*%
%ADD17R,0.080000X0.080000*%
%ADD18C,0.024000*%
%LNCOPPER1*%
G90*
G70*
G54D10*
X2006Y1865D03*
X1906Y1865D03*
X1806Y1865D03*
X1706Y1865D03*
X1606Y1865D03*
G54D11*
X606Y865D03*
X706Y865D03*
X806Y865D03*
X906Y865D03*
X1006Y865D03*
X1106Y865D03*
X1206Y865D03*
X1306Y865D03*
X1406Y865D03*
G54D12*
X1506Y865D03*
X1606Y865D03*
X1706Y865D03*
G54D11*
X1806Y865D03*
X1906Y865D03*
G54D12*
X2006Y865D03*
X2106Y865D03*
X2206Y865D03*
G54D11*
X606Y1465D03*
X706Y1465D03*
X806Y1465D03*
X906Y1465D03*
X1006Y1465D03*
X1106Y1465D03*
X1406Y1465D03*
G54D12*
X1506Y1465D03*
G54D11*
X1306Y1465D03*
X1206Y1465D03*
G54D12*
X1606Y1465D03*
X1706Y1465D03*
G54D11*
X1806Y1465D03*
X1906Y1465D03*
G54D12*
X2006Y1465D03*
X2106Y1465D03*
X2206Y1465D03*
G54D10*
X2206Y265D03*
X2106Y265D03*
X2006Y265D03*
X1906Y265D03*
X1806Y265D03*
X1706Y265D03*
X1606Y265D03*
X1506Y265D03*
X2906Y1565D03*
X2806Y1565D03*
X2706Y1565D03*
X2906Y1865D03*
X2806Y1865D03*
X2706Y1865D03*
X2906Y1265D03*
X2806Y1265D03*
X2706Y1265D03*
G54D13*
X1206Y665D03*
X1206Y265D03*
X1306Y665D03*
X1306Y265D03*
G54D14*
X2906Y265D03*
X2768Y265D03*
X2631Y265D03*
X2493Y265D03*
G54D15*
X1006Y1665D03*
X1106Y1665D03*
G54D16*
X606Y865D03*
G54D17*
X2906Y265D03*
G54D18*
X1335Y665D02*
X2506Y663D01*
D02*
X2506Y663D02*
X2621Y294D01*
D02*
X2480Y293D02*
X2407Y464D01*
D02*
X2407Y464D02*
X1207Y464D01*
D02*
X1207Y464D02*
X1206Y636D01*
D02*
X1905Y1165D02*
X1906Y1435D01*
D02*
X2805Y1165D02*
X1905Y1165D01*
D02*
X2806Y1235D02*
X2805Y1165D01*
D02*
X1705Y1663D02*
X1706Y1494D01*
D02*
X2805Y1663D02*
X1705Y1663D01*
D02*
X2806Y1835D02*
X2805Y1663D01*
D02*
X2506Y1464D02*
X2805Y1464D01*
D02*
X2805Y1464D02*
X2806Y1535D01*
D02*
X2506Y1563D02*
X2506Y1464D01*
D02*
X1805Y1563D02*
X2506Y1563D01*
D02*
X1806Y1494D02*
X1805Y1563D01*
D02*
X1805Y1767D02*
X1108Y1767D01*
D02*
X1108Y1767D02*
X1107Y1691D01*
D02*
X1806Y1835D02*
X1805Y1767D01*
D02*
X2706Y1895D02*
X2706Y1966D01*
D02*
X2706Y1966D02*
X1905Y1966D01*
D02*
X1905Y1966D02*
X1906Y1895D01*
G04 End of Copper1*
M02*