G04 MADE WITH FRITZING*
G04 WWW.FRITZING.ORG*
G04 DOUBLE SIDED*
G04 HOLES PLATED*
G04 CONTOUR ON CENTER OF CONTOUR VECTOR*
%ASAXBY*%
%FSLAX23Y23*%
%MOIN*%
%OFA0B0*%
%SFA1.0B1.0*%
%ADD10C,0.078000*%
%ADD11C,0.070555*%
%ADD12C,0.070583*%
%ADD13C,0.075000*%
%ADD14C,0.080000*%
%ADD15C,0.070000*%
%ADD16R,0.070542X0.070570*%
%ADD17R,0.080000X0.080000*%
%ADD18C,0.024000*%
%ADD19C,0.048000*%
%LNCOPPER0*%
G90*
G70*
G54D10*
X2006Y1865D03*
X1906Y1865D03*
X1806Y1865D03*
X1706Y1865D03*
X1606Y1865D03*
G54D11*
X606Y865D03*
X706Y865D03*
X806Y865D03*
X906Y865D03*
X1006Y865D03*
X1106Y865D03*
X1206Y865D03*
X1306Y865D03*
X1406Y865D03*
G54D12*
X1506Y865D03*
X1606Y865D03*
X1706Y865D03*
G54D11*
X1806Y865D03*
X1906Y865D03*
G54D12*
X2006Y865D03*
X2106Y865D03*
X2206Y865D03*
G54D11*
X606Y1465D03*
X706Y1465D03*
X806Y1465D03*
X906Y1465D03*
X1006Y1465D03*
X1106Y1465D03*
X1406Y1465D03*
G54D12*
X1506Y1465D03*
G54D11*
X1306Y1465D03*
X1206Y1465D03*
G54D12*
X1606Y1465D03*
X1706Y1465D03*
G54D11*
X1806Y1465D03*
X1906Y1465D03*
G54D12*
X2006Y1465D03*
X2106Y1465D03*
X2206Y1465D03*
G54D10*
X2206Y265D03*
X2106Y265D03*
X2006Y265D03*
X1906Y265D03*
X1806Y265D03*
X1706Y265D03*
X1606Y265D03*
X1506Y265D03*
X2906Y1565D03*
X2806Y1565D03*
X2706Y1565D03*
X2906Y1865D03*
X2806Y1865D03*
X2706Y1865D03*
X2906Y1265D03*
X2806Y1265D03*
X2706Y1265D03*
G54D13*
X1206Y665D03*
X1206Y265D03*
X1306Y665D03*
X1306Y265D03*
G54D14*
X2906Y265D03*
X2768Y265D03*
X2631Y265D03*
X2493Y265D03*
G54D15*
X1006Y1665D03*
X1106Y1665D03*
G54D16*
X606Y865D03*
G54D17*
X2906Y265D03*
G54D18*
X1106Y1494D02*
X1106Y1639D01*
G54D19*
D02*
X904Y1663D02*
X906Y1506D01*
D02*
X980Y1664D02*
X904Y1663D01*
D02*
X1008Y1866D02*
X1006Y1691D01*
D02*
X1576Y1865D02*
X1008Y1866D01*
D02*
X1606Y1966D02*
X1606Y1895D01*
D02*
X2006Y1895D02*
X2004Y1966D01*
D02*
X2004Y1966D02*
X1606Y1966D01*
D02*
X2004Y1767D02*
X2006Y1835D01*
D02*
X2307Y1767D02*
X2004Y1767D01*
D02*
X2906Y1895D02*
X2905Y1966D01*
D02*
X2905Y1966D02*
X2307Y1966D01*
D02*
X2307Y1966D02*
X2307Y1767D01*
D02*
X2906Y1835D02*
X2906Y1595D01*
D02*
X2906Y1535D02*
X2906Y1295D01*
D02*
X2906Y1235D02*
X2906Y296D01*
G54D18*
D02*
X2206Y295D02*
X2206Y835D01*
D02*
X2106Y295D02*
X2106Y835D01*
D02*
X2006Y295D02*
X2006Y835D01*
D02*
X1906Y295D02*
X1906Y835D01*
D02*
X1806Y295D02*
X1806Y835D01*
D02*
X1706Y295D02*
X1706Y835D01*
D02*
X1606Y295D02*
X1606Y835D01*
D02*
X1506Y295D02*
X1506Y835D01*
D02*
X2706Y1835D02*
X2706Y1595D01*
D02*
X2706Y1535D02*
X2706Y1295D01*
D02*
X2706Y663D02*
X2763Y295D01*
D02*
X2706Y1235D02*
X2706Y663D01*
D02*
X1206Y693D02*
X1206Y835D01*
D02*
X1306Y693D02*
X1306Y835D01*
D02*
X406Y1265D02*
X406Y264D01*
D02*
X1108Y1265D02*
X406Y1265D01*
D02*
X406Y264D02*
X1178Y265D01*
D02*
X1106Y1435D02*
X1108Y1265D01*
D02*
X1235Y265D02*
X1278Y265D01*
D02*
X2207Y1663D02*
X2206Y1494D01*
D02*
X1705Y1663D02*
X2207Y1663D01*
D02*
X1706Y1835D02*
X1705Y1663D01*
D02*
X1836Y1865D02*
X1876Y1865D01*
G04 End of Copper0*
M02*