G04 MADE WITH FRITZING*
G04 WWW.FRITZING.ORG*
G04 DOUBLE SIDED*
G04 HOLES PLATED*
G04 CONTOUR ON CENTER OF CONTOUR VECTOR*
%ASAXBY*%
%FSLAX23Y23*%
%MOIN*%
%OFA0B0*%
%SFA1.0B1.0*%
%ADD10C,0.088000*%
%ADD11C,0.080555*%
%ADD12C,0.080583*%
%ADD13C,0.085000*%
%ADD14C,0.090000*%
%ADD15C,0.080000*%
%ADD16C,0.135984*%
%ADD17R,0.080542X0.080570*%
%ADD18R,0.090000X0.090000*%
%LNMASK1*%
G90*
G70*
G54D10*
X2006Y1865D03*
X1906Y1865D03*
X1806Y1865D03*
X1706Y1865D03*
X1606Y1865D03*
G54D11*
X606Y865D03*
X706Y865D03*
X806Y865D03*
X906Y865D03*
X1006Y865D03*
X1106Y865D03*
X1206Y865D03*
X1306Y865D03*
X1406Y865D03*
G54D12*
X1506Y865D03*
X1606Y865D03*
X1706Y865D03*
G54D11*
X1806Y865D03*
X1906Y865D03*
G54D12*
X2006Y865D03*
X2106Y865D03*
X2206Y865D03*
G54D11*
X606Y1465D03*
X706Y1465D03*
X806Y1465D03*
X906Y1465D03*
X1006Y1465D03*
X1106Y1465D03*
X1406Y1465D03*
G54D12*
X1506Y1465D03*
G54D11*
X1306Y1465D03*
X1206Y1465D03*
G54D12*
X1606Y1465D03*
X1706Y1465D03*
G54D11*
X1806Y1465D03*
X1906Y1465D03*
G54D12*
X2006Y1465D03*
X2106Y1465D03*
X2206Y1465D03*
G54D10*
X2206Y265D03*
X2106Y265D03*
X2006Y265D03*
X1906Y265D03*
X1806Y265D03*
X1706Y265D03*
X1606Y265D03*
X1506Y265D03*
X2906Y1565D03*
X2806Y1565D03*
X2706Y1565D03*
X2906Y1865D03*
X2806Y1865D03*
X2706Y1865D03*
X2906Y1265D03*
X2806Y1265D03*
X2706Y1265D03*
G54D13*
X1206Y665D03*
X1206Y265D03*
X1306Y665D03*
X1306Y265D03*
G54D14*
X2906Y265D03*
X2768Y265D03*
X2631Y265D03*
X2493Y265D03*
G54D15*
X1006Y1665D03*
X1106Y1665D03*
G54D16*
X3306Y1965D03*
X3306Y165D03*
X206Y1965D03*
X206Y165D03*
G54D17*
X606Y865D03*
G54D18*
X2906Y265D03*
G04 End of Mask1*
M02*