; NON-PLATED HOLES START AT T1
; THROUGH (PLATED) HOLES START AT T100
M48
INCH
T1C0.125984
T100C0.037250
T101C0.040000
T102C0.015748
T103C0.030000
T104C0.037222
T105C0.035000
T106C0.038000
%
T1
X002444Y020222
X002444Y002222
X031444Y020222
X031444Y002222
T100
X016444Y016222
X016444Y010222
X020444Y016222
X020444Y010222
X019444Y016222
X019444Y010222
X021444Y016222
X021444Y010222
X014444Y016222
X014444Y010222
X015444Y016222
X015444Y010222
T101
X027566Y001722
X024810Y001722
X026188Y001722
X028944Y001722
T102
X024966Y006229
X026450Y008208
T103
X009946Y017722
X008944Y017722
T104
X011444Y010222
X007444Y010222
X010444Y010222
X013444Y016222
X009444Y016222
X012444Y016222
X006444Y016222
X013444Y010222
X009444Y010222
X005444Y016222
X012444Y010222
X006444Y010222
X018444Y016222
X005444Y010222
X017444Y016222
X018444Y010222
X017444Y010222
X008444Y016222
X011444Y016222
X007444Y016222
X010444Y016222
X008444Y010222
T105
X012444Y008222
X011444Y008222
X012444Y004222
X011444Y004222
T106
X016444Y001722
X016444Y020222
X017444Y001722
X017444Y020222
X020444Y001722
X018444Y001722
X018444Y020222
X019444Y001722
X019444Y020222
X013444Y001722
X014444Y001722
X015444Y001722
X015444Y020222
T00
M30
