G04 MADE WITH FRITZING*
G04 WWW.FRITZING.ORG*
G04 DOUBLE SIDED*
G04 HOLES PLATED*
G04 CONTOUR ON CENTER OF CONTOUR VECTOR*
%ASAXBY*%
%FSLAX23Y23*%
%MOIN*%
%OFA0B0*%
%SFA1.0B1.0*%
%ADD10C,0.080000*%
%ADD11C,0.070555*%
%ADD12C,0.070583*%
%ADD13C,0.075000*%
%ADD14C,0.078000*%
%ADD15C,0.070000*%
%ADD16C,0.039370*%
%ADD17R,0.080000X0.080000*%
%ADD18R,0.070542X0.070570*%
%ADD19C,0.024000*%
%LNCOPPER1*%
G90*
G70*
G54D10*
X2894Y172D03*
X2757Y172D03*
X2619Y172D03*
X2481Y172D03*
G54D11*
X544Y1022D03*
X644Y1022D03*
X744Y1022D03*
X844Y1022D03*
X944Y1022D03*
X1044Y1022D03*
X1144Y1022D03*
X1244Y1022D03*
X1344Y1022D03*
G54D12*
X1444Y1022D03*
X1544Y1022D03*
X1644Y1022D03*
G54D11*
X1744Y1022D03*
X1844Y1022D03*
G54D12*
X1944Y1022D03*
X2044Y1022D03*
X2144Y1022D03*
G54D11*
X544Y1622D03*
X644Y1622D03*
X744Y1622D03*
X844Y1622D03*
X944Y1622D03*
X1044Y1622D03*
X1344Y1622D03*
G54D12*
X1444Y1622D03*
G54D11*
X1244Y1622D03*
X1144Y1622D03*
G54D12*
X1544Y1622D03*
X1644Y1622D03*
G54D11*
X1744Y1622D03*
X1844Y1622D03*
G54D12*
X1944Y1622D03*
X2044Y1622D03*
X2144Y1622D03*
G54D13*
X1144Y822D03*
X1144Y422D03*
X1244Y822D03*
X1244Y422D03*
G54D14*
X2044Y172D03*
X1944Y172D03*
X1844Y172D03*
X1744Y172D03*
X1644Y172D03*
X1544Y172D03*
X1444Y172D03*
X1344Y172D03*
X1544Y2022D03*
X1644Y2022D03*
X1744Y2022D03*
X1844Y2022D03*
X1944Y2022D03*
G54D15*
X894Y1772D03*
X995Y1772D03*
G54D16*
X2645Y821D03*
X2497Y623D03*
G54D17*
X2894Y172D03*
G54D18*
X544Y1022D03*
G54D19*
X2744Y425D02*
X1273Y422D01*
D02*
X2755Y203D02*
X2744Y425D01*
D02*
X2894Y203D02*
X2893Y1123D01*
D02*
X2893Y1123D02*
X1045Y1123D01*
D02*
X1045Y1123D02*
X1045Y1052D01*
D02*
X1273Y822D02*
X2626Y821D01*
D02*
X1144Y623D02*
X2478Y623D01*
D02*
X1144Y794D02*
X1144Y623D01*
G04 End of Copper1*
M02*